<?xml version="1.0" encoding="UTF-8"?>
<svg xmlns="http://www.w3.org/2000/svg" xmlns:xlink="http://www.w3.org/1999/xlink" width="16px" height="16px"
    viewBox="0 0 16 16" version="1.1">
    <g id="surface1">
        <path style=" stroke:none;fill-rule:nonzero;fill:#6E6E6E;fill-opacity:1;"
            d="M 6 12 C 5.632812 12 5.320312 11.871094 5.058594 11.609375 C 4.796875 11.347656 4.667969 11.035156 4.667969 10.667969 L 4.667969 2.667969 C 4.667969 2.300781 4.796875 1.984375 5.058594 1.726562 C 5.320312 1.464844 5.632812 1.332031 6 1.332031 L 12 1.332031 C 12.367188 1.332031 12.679688 1.464844 12.941406 1.726562 C 13.203125 1.984375 13.332031 2.300781 13.332031 2.667969 L 13.332031 10.667969 C 13.332031 11.035156 13.203125 11.347656 12.941406 11.609375 C 12.679688 11.871094 12.367188 12 12 12 Z M 6 10.667969 L 12 10.667969 L 12 2.667969 L 6 2.667969 Z M 3.332031 14.667969 C 2.964844 14.667969 2.652344 14.535156 2.390625 14.273438 C 2.128906 14.015625 2 13.699219 2 13.332031 L 2 4 L 3.332031 4 L 3.332031 13.332031 L 10.667969 13.332031 L 10.667969 14.667969 Z M 6 10.667969 L 6 2.667969 Z M 6 10.667969 " />
    </g>
</svg>