<?xml version="1.0" encoding="UTF-8"?>
<svg xmlns="http://www.w3.org/2000/svg" xmlns:xlink="http://www.w3.org/1999/xlink" width="16px" height="16px"
    viewBox="0 0 16 16" version="1.1">
    <g id="surface1">
        <path style=" stroke:none;fill-rule:nonzero;fill:#6E6E6E;fill-opacity:1;"
            d="M 12.667969 14 L 8 9.332031 L 6.433594 10.898438 C 6.523438 11.066406 6.582031 11.246094 6.617188 11.433594 C 6.648438 11.621094 6.667969 11.8125 6.667969 12 C 6.667969 12.734375 6.40625 13.359375 5.882812 13.882812 C 5.359375 14.40625 4.734375 14.667969 4 14.667969 C 3.265625 14.667969 2.640625 14.40625 2.117188 13.882812 C 1.59375 13.359375 1.332031 12.734375 1.332031 12 C 1.332031 11.265625 1.59375 10.640625 2.117188 10.117188 C 2.640625 9.59375 3.265625 9.332031 4 9.332031 C 4.1875 9.332031 4.378906 9.351562 4.566406 9.382812 C 4.753906 9.417969 4.933594 9.476562 5.101562 9.566406 L 6.667969 8 L 5.101562 6.433594 C 4.933594 6.523438 4.753906 6.582031 4.566406 6.617188 C 4.378906 6.648438 4.1875 6.667969 4 6.667969 C 3.265625 6.667969 2.640625 6.40625 2.117188 5.882812 C 1.59375 5.359375 1.332031 4.734375 1.332031 4 C 1.332031 3.265625 1.59375 2.640625 2.117188 2.117188 C 2.640625 1.59375 3.265625 1.332031 4 1.332031 C 4.734375 1.332031 5.359375 1.59375 5.882812 2.117188 C 6.40625 2.640625 6.667969 3.265625 6.667969 4 C 6.667969 4.1875 6.648438 4.378906 6.617188 4.566406 C 6.582031 4.753906 6.523438 4.933594 6.433594 5.101562 L 14.667969 13.332031 L 14.667969 14 Z M 10 7.332031 L 8.667969 6 L 12.667969 2 L 14.667969 2 L 14.667969 2.667969 Z M 4 5.332031 C 4.367188 5.332031 4.679688 5.203125 4.941406 4.941406 C 5.203125 4.679688 5.332031 4.367188 5.332031 4 C 5.332031 3.632812 5.203125 3.320312 4.941406 3.058594 C 4.679688 2.796875 4.367188 2.667969 4 2.667969 C 3.632812 2.667969 3.320312 2.796875 3.058594 3.058594 C 2.796875 3.320312 2.667969 3.632812 2.667969 4 C 2.667969 4.367188 2.796875 4.679688 3.058594 4.941406 C 3.320312 5.203125 3.632812 5.332031 4 5.332031 Z M 8 8.332031 C 8.089844 8.332031 8.167969 8.300781 8.234375 8.234375 C 8.300781 8.167969 8.332031 8.089844 8.332031 8 C 8.332031 7.910156 8.300781 7.832031 8.234375 7.765625 C 8.167969 7.699219 8.089844 7.667969 8 7.667969 C 7.910156 7.667969 7.832031 7.699219 7.765625 7.765625 C 7.699219 7.832031 7.667969 7.910156 7.667969 8 C 7.667969 8.089844 7.699219 8.167969 7.765625 8.234375 C 7.832031 8.300781 7.910156 8.332031 8 8.332031 Z M 4 13.332031 C 4.367188 13.332031 4.679688 13.203125 4.941406 12.941406 C 5.203125 12.679688 5.332031 12.367188 5.332031 12 C 5.332031 11.632812 5.203125 11.320312 4.941406 11.058594 C 4.679688 10.796875 4.367188 10.667969 4 10.667969 C 3.632812 10.667969 3.320312 10.796875 3.058594 11.058594 C 2.796875 11.320312 2.667969 11.632812 2.667969 12 C 2.667969 12.367188 2.796875 12.679688 3.058594 12.941406 C 3.320312 13.203125 3.632812 13.332031 4 13.332031 Z M 4 13.332031 " />
    </g>
</svg>