<?xml version="1.0" encoding="UTF-8"?>
<svg xmlns="http://www.w3.org/2000/svg" xmlns:xlink="http://www.w3.org/1999/xlink" width="16px" height="16px"
    viewBox="0 0 16 16" version="1.1">
    <g id="surface1">
        <path style=" stroke:none;fill-rule:nonzero;fill:#6E6E6E;fill-opacity:1;"
            d="M 7.332031 12 L 8.667969 12 L 8.667969 10 L 10.667969 10 L 10.667969 8.667969 L 8.667969 8.667969 L 8.667969 6.667969 L 7.332031 6.667969 L 7.332031 8.667969 L 5.332031 8.667969 L 5.332031 10 L 7.332031 10 Z M 4 14.667969 C 3.632812 14.667969 3.320312 14.535156 3.058594 14.273438 C 2.796875 14.015625 2.667969 13.699219 2.667969 13.332031 L 2.667969 2.667969 C 2.667969 2.300781 2.796875 1.984375 3.058594 1.726562 C 3.320312 1.464844 3.632812 1.332031 4 1.332031 L 9.332031 1.332031 L 13.332031 5.332031 L 13.332031 13.332031 C 13.332031 13.699219 13.203125 14.015625 12.941406 14.273438 C 12.679688 14.535156 12.367188 14.667969 12 14.667969 Z M 8.667969 6 L 8.667969 2.667969 L 4 2.667969 L 4 13.332031 L 12 13.332031 L 12 6 Z M 4 2.667969 L 4 6 L 4 2.667969 L 4 13.332031 Z M 4 2.667969 " />
    </g>
</svg>