<?xml version="1.0" encoding="UTF-8"?>
<svg xmlns="http://www.w3.org/2000/svg" xmlns:xlink="http://www.w3.org/1999/xlink" width="16px" height="16px"
    viewBox="0 0 16 16" version="1.1">
    <g id="surface1">
        <path style=" stroke:none;fill-rule:nonzero;fill:#6E6E6E;fill-opacity:1;"
            d="M 3.332031 14 C 2.964844 14 2.652344 13.871094 2.390625 13.609375 C 2.128906 13.347656 2 13.035156 2 12.667969 L 2 3.332031 C 2 2.964844 2.128906 2.652344 2.390625 2.390625 C 2.652344 2.128906 2.964844 2 3.332031 2 L 6.117188 2 C 6.238281 1.609375 6.476562 1.292969 6.832031 1.042969 C 7.1875 0.792969 7.578125 0.667969 8 0.667969 C 8.445312 0.667969 8.839844 0.792969 9.191406 1.042969 C 9.542969 1.292969 9.777344 1.609375 9.898438 2 L 12.667969 2 C 13.035156 2 13.347656 2.128906 13.609375 2.390625 C 13.871094 2.652344 14 2.964844 14 3.332031 L 14 12.667969 C 14 13.035156 13.871094 13.347656 13.609375 13.609375 C 13.347656 13.871094 13.035156 14 12.667969 14 Z M 3.332031 12.667969 L 12.667969 12.667969 L 12.667969 3.332031 L 11.332031 3.332031 L 11.332031 5.332031 L 4.667969 5.332031 L 4.667969 3.332031 L 3.332031 3.332031 Z M 8 3.332031 C 8.1875 3.332031 8.347656 3.269531 8.476562 3.140625 C 8.601562 3.015625 8.667969 2.855469 8.667969 2.667969 C 8.667969 2.476562 8.601562 2.320312 8.476562 2.191406 C 8.347656 2.0625 8.1875 2 8 2 C 7.8125 2 7.652344 2.0625 7.523438 2.191406 C 7.398438 2.320312 7.332031 2.476562 7.332031 2.667969 C 7.332031 2.855469 7.398438 3.015625 7.523438 3.140625 C 7.652344 3.269531 7.8125 3.332031 8 3.332031 Z M 8 3.332031 " />
    </g>
</svg>