<?xml version="1.0" encoding="UTF-8"?>
<svg xmlns="http://www.w3.org/2000/svg" xmlns:xlink="http://www.w3.org/1999/xlink" width="16px" height="16px"
    viewBox="0 0 16 16" version="1.1">
    <g id="surface1">
        <path style=" stroke:none;fill-rule:nonzero;fill:#6E6E6E;fill-opacity:1;"
            d="M 6.601562 12.667969 C 5.523438 12.667969 4.597656 12.316406 3.824219 11.617188 C 3.054688 10.917969 2.667969 10.042969 2.667969 9 C 2.667969 7.957031 3.054688 7.082031 3.824219 6.382812 C 4.597656 5.683594 5.523438 5.332031 6.601562 5.332031 L 10.800781 5.332031 L 9.066406 3.601562 L 10 2.667969 L 13.332031 6 L 10 9.332031 L 9.066406 8.398438 L 10.800781 6.667969 L 6.601562 6.667969 C 5.898438 6.667969 5.292969 6.890625 4.773438 7.332031 C 4.257812 7.777344 4 8.332031 4 9 C 4 9.667969 4.257812 10.222656 4.773438 10.667969 C 5.292969 11.109375 5.898438 11.332031 6.601562 11.332031 L 11.332031 11.332031 L 11.332031 12.667969 Z M 6.601562 12.667969 " />
    </g>
</svg>