<?xml version="1.0" encoding="UTF-8"?>
<svg xmlns="http://www.w3.org/2000/svg" xmlns:xlink="http://www.w3.org/1999/xlink" width="16px" height="16px"
    viewBox="0 0 16 16" version="1.1">
    <g id="surface1">
        <path style=" stroke:none;fill-rule:nonzero;fill:#6E6E6E;fill-opacity:1;"
            d="M 14 4.667969 L 14 12.667969 C 14 13.035156 13.871094 13.347656 13.609375 13.609375 C 13.347656 13.871094 13.035156 14 12.667969 14 L 3.332031 14 C 2.964844 14 2.652344 13.871094 2.390625 13.609375 C 2.128906 13.347656 2 13.035156 2 12.667969 L 2 3.332031 C 2 2.964844 2.128906 2.652344 2.390625 2.390625 C 2.652344 2.128906 2.964844 2 3.332031 2 L 11.332031 2 Z M 12.667969 5.234375 L 10.765625 3.332031 L 3.332031 3.332031 L 3.332031 12.667969 L 12.667969 12.667969 Z M 8 12 C 8.554688 12 9.027344 11.804688 9.417969 11.417969 C 9.804688 11.027344 10 10.554688 10 10 C 10 9.445312 9.804688 8.972656 9.417969 8.582031 C 9.027344 8.195312 8.554688 8 8 8 C 7.445312 8 6.972656 8.195312 6.582031 8.582031 C 6.195312 8.972656 6 9.445312 6 10 C 6 10.554688 6.195312 11.027344 6.582031 11.417969 C 6.972656 11.804688 7.445312 12 8 12 Z M 4 6.667969 L 10 6.667969 L 10 4 L 4 4 Z M 3.332031 5.234375 L 3.332031 12.667969 L 3.332031 3.332031 Z M 3.332031 5.234375 " />
    </g>
</svg>