<?xml version="1.0" encoding="UTF-8"?>
<svg xmlns="http://www.w3.org/2000/svg" xmlns:xlink="http://www.w3.org/1999/xlink" width="16px" height="16px"
    viewBox="0 0 16 16" version="1.1">
    <g id="surface1">
        <path style=" stroke:none;fill-rule:nonzero;fill:#6E6E6E;fill-opacity:1;"
            d="M 4.667969 12.667969 L 4.667969 11.332031 L 9.398438 11.332031 C 10.101562 11.332031 10.707031 11.109375 11.226562 10.667969 C 11.742188 10.222656 12 9.667969 12 9 C 12 8.332031 11.742188 7.777344 11.226562 7.332031 C 10.707031 6.890625 10.101562 6.667969 9.398438 6.667969 L 5.199219 6.667969 L 6.933594 8.398438 L 6 9.332031 L 2.667969 6 L 6 2.667969 L 6.933594 3.601562 L 5.199219 5.332031 L 9.398438 5.332031 C 10.476562 5.332031 11.402344 5.683594 12.175781 6.382812 C 12.945312 7.082031 13.332031 7.957031 13.332031 9 C 13.332031 10.042969 12.945312 10.917969 12.175781 11.617188 C 11.402344 12.316406 10.476562 12.667969 9.398438 12.667969 Z M 4.667969 12.667969 " />
    </g>
</svg>